<svg id="eMKQA1cpOmP1" xmlns="http://www.w3.org/2000/svg" xmlns:xlink="http://www.w3.org/1999/xlink" viewBox="0 0 100 120" shape-rendering="geometricPrecision" text-rendering="geometricPrecision"><g transform="translate(-90-90.311691)"><path d="M100,120.272063l20-19.920742l20,20l20-20l20,19.920742v40.079258l-40,39.920742-40-39.920742v-40.079258Z" fill="#004629" stroke="#3f5787" stroke-width="0"/><path d="M200,120l-20-20-20,20v40l20,20l20-20" transform="translate(-60 0.351321)" fill="none" stroke="#009266" stroke-width="5"/><path d="M120,140v20l20,20l20-20-40-40l20-20l20,20v20" transform="translate(20 0.351321)" fill="none" stroke="#009266" stroke-width="5"/><path d="M120,140v20l20,20l20-20-40-40l20-20l20,20v20" transform="translate(0 20.272063)" fill="none" stroke="#37947d" stroke-width="5"/></g></svg>
