<svg id="eqypQsFxKUA1" xmlns="http://www.w3.org/2000/svg" xmlns:xlink="http://www.w3.org/1999/xlink" viewBox="0 0 50 40" shape-rendering="geometricPrecision" text-rendering="geometricPrecision"><defs><linearGradient id="eqypQsFxKUA2-stroke" x1="0" y1="0.5" x2="1" y2="0.5" spreadMethod="pad" gradientUnits="objectBoundingBox" gradientTransform="translate(0 0)"><stop id="eqypQsFxKUA2-stroke-0" offset="0%" stop-color="rgba(0,205,120,0)"/><stop id="eqypQsFxKUA2-stroke-1" offset="53%" stop-color="#00cd78"/><stop id="eqypQsFxKUA2-stroke-2" offset="78%" stop-color="#ff3287"/></linearGradient><linearGradient id="eqypQsFxKUA3-stroke" x1="0" y1="0.5" x2="1" y2="0.5" spreadMethod="pad" gradientUnits="objectBoundingBox" gradientTransform="translate(0 0)"><stop id="eqypQsFxKUA3-stroke-0" offset="0%" stop-color="rgba(0,205,120,0)"/><stop id="eqypQsFxKUA3-stroke-1" offset="53%" stop-color="#00cd78"/><stop id="eqypQsFxKUA3-stroke-2" offset="78%" stop-color="#ff3287"/></linearGradient><linearGradient id="eqypQsFxKUA4-stroke" x1="0" y1="0.5" x2="1" y2="0.5" spreadMethod="pad" gradientUnits="objectBoundingBox" gradientTransform="translate(0 0)"><stop id="eqypQsFxKUA4-stroke-0" offset="0%" stop-color="rgba(0,205,120,0)"/><stop id="eqypQsFxKUA4-stroke-1" offset="53%" stop-color="#00cd78"/><stop id="eqypQsFxKUA4-stroke-2" offset="78%" stop-color="#ff3287"/></linearGradient><linearGradient id="eqypQsFxKUA6-stroke" x1="0" y1="0.5" x2="1" y2="0.5" spreadMethod="pad" gradientUnits="objectBoundingBox" gradientTransform="translate(0 0)"><stop id="eqypQsFxKUA6-stroke-0" offset="0%" stop-color="rgba(0,205,120,0)"/><stop id="eqypQsFxKUA6-stroke-1" offset="53%" stop-color="#00cd78"/><stop id="eqypQsFxKUA6-stroke-2" offset="78%" stop-color="#ff3287"/></linearGradient></defs><path d="M-10,20h20.0333q-10,10-10.01665,10Q0,30,-10,30" transform="translate(9.991675 5)" fill="none" stroke="url(#eqypQsFxKUA2-stroke)" stroke-width="0.5"/><path d="M-10,20h20.0333q-10,10-10.01665,10Q0,30,-10,30" transform="matrix(-1 0 0 1 40.0333 5)" fill="none" stroke="url(#eqypQsFxKUA3-stroke)" stroke-width="0.5"/><path d="M-10,0h10L10.0333,10L0,10h-10" transform="translate(9.975025 5)" fill="none" stroke="url(#eqypQsFxKUA4-stroke)" stroke-width="0.5"/><path d="M20,70v-40L40,50L20,70Z" transform="matrix(1.498335 0 0 1-9.9334-30)" fill="#002a19" stroke="#3f5787" stroke-width="0"/><path d="M-10,0h10L10.0333,10L0,10h-10" transform="matrix(-1 0 0 1 40.0333 5)" fill="none" stroke="url(#eqypQsFxKUA6-stroke)" stroke-width="0.5"/><path d="M20,70v-40L40,50L20,70Z" transform="matrix(1.498335 0 0 1-14.95005-30)" fill="#cfc645" stroke="#3f5787" stroke-width="0"/></svg>
